<?xml version="1.0" encoding="utf-8"?>
<!-- Generator: Adobe Illustrator 27.9.0, SVG Export Plug-In . SVG Version: 6.00 Build 0)  -->
<svg version="1.1" id="wb-header-logo" xmlns="http://www.w3.org/2000/svg" xmlns:xlink="http://www.w3.org/1999/xlink" x="0px"
	 y="0px" width="500px" height="75.1px" viewBox="0 0 500 75.1" style="enable-background:new 0 0 500 75.1;" xml:space="preserve">
<style type="text/css">
	.st0{fill:#E313BF;}
</style>
<path class="st0" d="M210.8,22.1c-5.7,0-10.8,1.7-15.1,4.5V0.5h-12.1v48.1c0,14.6,12.2,26.4,27.1,26.4c14.9,0,27.3-11.7,27.3-26.5
	S226,22.1,210.8,22.1L210.8,22.1z M148.2,22.9c-13.4,1.3-24.4,12.6-24.4,26.1c0,14.2,12.5,26.2,27.1,26.2S178,63.3,178,49
	c0-6.1-2.2-11.6-5.9-16L145.4,0.6h-15.6C129.8,0.6,148.2,22.9,148.2,22.9z M54.9,52L43.8,24h-8.5l-11,28L13.2,24H0l19.4,49.4h8.5
	L39.6,44l11.7,29.4h8.5L79.1,24H66L54.9,52L54.9,52z M270.8,22.2c-15.1,0-27.3,11.4-27.3,25.9c0,14.4,10.7,27.1,26.6,27.1
	c9.5,0,17.2-4.5,22.7-12.1l-9.4-7.5c-2.7,4.8-8,7.6-13.2,7.6c-6.8,0-13.5-4.7-14-11.6h39.5V48C295.6,32.8,285.3,22.2,270.8,22.2z
	 M424.8,22.2c-15.1,0-27.2,11.4-27.2,26.5c0,14.2,10.7,26.4,26.5,26.4c9.5,0,17.2-4.5,22.7-12.1l-8.3-6.9c-2.9,4.4-8.2,7-14.6,7
	c-6.3,0-13.2-4.7-13.7-11.6h39.3v-4.1C449.5,32.8,439.3,22.2,424.8,22.2L424.8,22.2z M467,38.4c0-3.1,4.3-5.5,9.9-5.5
	s11.8,2.7,15.8,7.1l7.3-8.7c-7-6-14-9.1-22.8-9.1c-11,0-22.3,4.9-22.3,16.2c0,13.9,12.3,14.9,22.3,15.7c5.6,0.4,10.6,0.8,10.6,4.4
	c0,3.9-5.7,5.7-10.6,5.7c-6.4,0-12.5-2.9-16.6-7.8l-7.8,8.1c6.2,7.4,15.2,10.6,24,10.6c11,0,23.1-5.1,23.1-16.8
	c0-13.2-12.4-14.5-21.9-15.4C471.9,42.2,467,41.7,467,38.4L467,38.4z M313.9,35.2V24h-12.1v49.3h12.1V52.4
	c1.6-11.6,11.1-16.3,22.1-16.3V24h-1.2C325.5,24,318.7,27.3,313.9,35.2L313.9,35.2z M352.2,35.2V24h-12.1v49.3h12.1V52.4
	c1.6-13.1,13.2-16.3,22.1-16.3V24H373C363.8,24,357,27.2,352.2,35.2z M105.6,73.3h12.1V0.6h-12.1V73.3L105.6,73.3z M150.9,63.3
	c-8.3,0-15.1-6.5-15.1-14.6s6.7-14.7,15-14.7c8.2,0,15.2,6.5,15.2,14.7S159.3,63.3,150.9,63.3z M210.8,63.3
	c-8.2,0-15.1-6.4-15.1-14.7S202.2,34,210.8,34S226,40.5,226,48.6S219.1,63.3,210.8,63.3z M84.7,73.3h12.1V24H84.7V73.3L84.7,73.3z
	 M379.4,73.3h12.1V24h-12.1V73.3L379.4,73.3z M90.6,0c-4.9,0-9,4-9,9c0,5.1,4.3,8.6,9,8.6c5.2,0,9.2-4.3,9.2-8.8
	C99.8,4.2,95.6,0,90.6,0L90.6,0z M385.4,0c-4.9,0-9.1,4-9.1,9s4,8.6,9.3,8.6s8.9-3.5,8.9-8.4C394.5,4.3,390.4,0,385.4,0L385.4,0z
	 M411.6,41.7c2-4.9,6.3-7.7,12.6-7.7c6.3,0,10.2,3,11.8,7.7H411.6z M257.5,41.7c2-4.9,6.3-7.7,12.5-7.7c6.3,0,10.4,3,12,7.7
	C282.1,41.7,257.5,41.7,257.5,41.7z"/>
</svg>
